<svg width="65" height="54" fill="none" xmlns="http://www.w3.org/2000/svg"><path d="M55.675 25.562c-.456-.218-1.037-.086-1.298.293-.26.38-.102.864.353 1.08 5.268 2.51 8.168 5.747 8.168 9.114 0 6.543-11.078 12.254-25.769 13.285-.523.036-.911.42-.868.855.042.413.458.725.947.725.027 0 .054 0 .081-.003 7.498-.526 14.389-2.26 19.405-4.883 5.227-2.734 8.107-6.278 8.107-9.98 0-3.958-3.241-7.682-9.126-10.486zM33.017 50.481a.776.776 0 00.051-.074l.013-.023a.645.645 0 00.06-.137l.007-.024a.667.667 0 00.013-.063l.005-.022a.702.702 0 000-.173l-.005-.021a.65.65 0 00-.013-.064l-.008-.024a.665.665 0 00-.108-.213l-.015-.02a.752.752 0 00-.052-.06l-.008-.009a.721.721 0 00-.068-.06c-.007-.007-.014-.011-.021-.017a.98.98 0 00-.056-.04l-.01-.007-4.959-3.164c-.413-.264-1.006-.2-1.323.144-.318.343-.24.835.173 1.1l2.662 1.698c-7.114-.295-13.705-1.68-18.798-3.977-5.59-2.52-8.669-5.818-8.669-9.285 0-3.334 2.88-6.539 8.108-9.024.453-.216.61-.694.35-1.07-.258-.376-.835-.506-1.287-.291C3.217 28.338 0 32.026 0 35.946c0 4.069 3.43 7.856 9.656 10.663 5.402 2.436 12.378 3.892 19.874 4.175l-2.837 1.81c-.413.264-.491.756-.174 1.1.186.2.467.306.75.306.2 0 .403-.053.574-.162l4.96-3.165.01-.007.055-.04.021-.015a.785.785 0 00.068-.062l.008-.009a.872.872 0 00.051-.059zM33.17 0c-6.617 0-12 5.38-12 11.994v12.012c0 6.614 5.383 11.994 12 11.994s12-5.38 12-11.994V11.994C45.17 5.381 39.787 0 33.17 0zm10.667 24.006c0 5.879-4.786 10.66-10.667 10.66-5.882 0-10.667-4.781-10.667-10.66V11.994c0-5.878 4.785-10.66 10.667-10.66 5.881 0 10.667 4.782 10.667 10.66v12.012z" fill="#fff"/><path d="M33.173 4a.667.667 0 00-.667.667v6.037a.667.667 0 101.333 0V4.666A.667.667 0 0033.173 4z" fill="#fff"/></svg>