<svg width="86" height="28" fill="none" xmlns="http://www.w3.org/2000/svg"><path d="M10.081 10.2c2.517 0 4.635.76 6.354 2.28 1.719 1.495 2.579 3.588 2.579 6.28 0 2.69-.91 4.796-2.729 6.316-1.794 1.52-3.999 2.28-6.615 2.28-2.118 0-3.987-.474-5.606-1.42-1.62-.948-2.79-2.343-3.513-4.187l4.41-2.579c.648 2.093 2.217 3.14 4.709 3.14 1.32 0 2.342-.312 3.065-.935.747-.647 1.12-1.52 1.12-2.616 0-1.071-.36-1.93-1.083-2.579-.723-.647-1.707-.971-2.952-.971H1.896L2.943.67H17.78v4.821H7.727l-.337 4.71h2.691zm21.565 17.155c-3.264 0-5.83-1.233-7.7-3.7-1.843-2.491-2.765-5.793-2.765-9.904s.922-7.4 2.766-9.867C25.815 1.393 28.382.147 31.646.147c3.289 0 5.855 1.246 7.699 3.737 1.843 2.467 2.765 5.756 2.765 9.867 0 4.111-.922 7.413-2.765 9.904-1.844 2.467-4.41 3.7-7.7 3.7zm-3.962-7.213c.897 1.445 2.218 2.168 3.962 2.168 1.744 0 3.064-.735 3.961-2.205.922-1.47 1.383-3.588 1.383-6.354 0-2.79-.46-4.92-1.383-6.39-.897-1.47-2.217-2.206-3.961-2.206-1.744 0-3.065.735-3.962 2.205-.897 1.47-1.345 3.6-1.345 6.391 0 2.79.448 4.921 1.345 6.391zm27.503 7.213c-3.264 0-5.83-1.233-7.7-3.7-1.843-2.491-2.765-5.793-2.765-9.904s.922-7.4 2.766-9.867C49.357 1.393 51.923.147 55.187.147c3.289 0 5.855 1.246 7.699 3.737 1.844 2.467 2.766 5.756 2.766 9.867 0 4.111-.922 7.413-2.766 9.904-1.844 2.467-4.41 3.7-7.699 3.7zm-3.962-7.213c.897 1.445 2.218 2.168 3.962 2.168 1.744 0 3.065-.735 3.962-2.205.922-1.47 1.383-3.588 1.383-6.354 0-2.79-.461-4.92-1.383-6.39-.897-1.47-2.218-2.206-3.962-2.206-1.744 0-3.065.735-3.962 2.205-.897 1.47-1.345 3.6-1.345 6.391 0 2.79.448 4.921 1.345 6.391zm34.53-8.671v4.523h-6.167v6.166h-4.522v-6.166h-6.13V11.47h6.13V5.342h4.522v6.13h6.167z" fill="#FF5722"/></svg>