<svg width="111" height="28" fill="none" xmlns="http://www.w3.org/2000/svg"><path d="M12.865 11.708c1.79.53 3.24 1.463 4.35 2.8 1.136 1.311 1.703 2.9 1.703 4.767 0 2.724-.92 4.855-2.762 6.394-1.816 1.538-4.048 2.308-6.697 2.308-2.068 0-3.922-.467-5.561-1.4-1.615-.959-2.788-2.359-3.52-4.2l4.465-2.573C5.5 21.848 7.038 22.87 9.46 22.87c1.337 0 2.371-.315 3.103-.946.757-.656 1.135-1.538 1.135-2.648 0-1.085-.378-1.955-1.135-2.61-.732-.657-1.766-.985-3.103-.985H8.324L6.32 12.653l5.221-6.81H1.173V.963h16.648v4.313l-4.956 6.432zm19.179 16.269c-3.304 0-5.902-1.249-7.794-3.746-1.866-2.522-2.8-5.864-2.8-10.026s.934-7.492 2.8-9.989C26.142 1.694 28.74.433 32.044.433c3.33 0 5.928 1.26 7.794 3.783 1.867 2.497 2.8 5.827 2.8 9.989 0 4.162-.933 7.504-2.8 10.026-1.866 2.497-4.464 3.746-7.794 3.746zm-4.01-7.302c.908 1.463 2.244 2.194 4.01 2.194 1.766 0 3.103-.744 4.01-2.232.934-1.488 1.4-3.632 1.4-6.432 0-2.825-.466-4.982-1.4-6.47-.907-1.488-2.244-2.232-4.01-2.232-1.766 0-3.102.744-4.01 2.232-.909 1.488-1.362 3.645-1.362 6.47 0 2.825.453 4.981 1.362 6.47zm27.842 7.302c-3.304 0-5.902-1.249-7.794-3.746-1.867-2.522-2.8-5.864-2.8-10.026s.933-7.492 2.8-9.989c1.892-2.522 4.49-3.783 7.794-3.783 3.33 0 5.927 1.26 7.794 3.783 1.867 2.497 2.8 5.827 2.8 9.989 0 4.162-.933 7.504-2.8 10.026-1.867 2.497-4.465 3.746-7.794 3.746zm-4.01-7.302c.907 1.463 2.244 2.194 4.01 2.194 1.766 0 3.102-.744 4.01-2.232.934-1.488 1.4-3.632 1.4-6.432 0-2.825-.466-4.982-1.4-6.47-.908-1.488-2.245-2.232-4.01-2.232-1.766 0-3.103.744-4.01 2.232-.909 1.488-1.363 3.645-1.363 6.47 0 2.825.454 4.981 1.362 6.47zm27.842 7.302c-3.305 0-5.903-1.249-7.794-3.746-1.867-2.522-2.8-5.864-2.8-10.026s.933-7.492 2.8-9.989c1.891-2.522 4.49-3.783 7.794-3.783 3.33 0 5.927 1.26 7.794 3.783 1.866 2.497 2.8 5.827 2.8 9.989 0 4.162-.934 7.504-2.8 10.026-1.867 2.497-4.465 3.746-7.794 3.746zm-4.01-7.302c.907 1.463 2.244 2.194 4.01 2.194 1.765 0 3.102-.744 4.01-2.232.933-1.488 1.4-3.632 1.4-6.432 0-2.825-.466-4.982-1.4-6.47-.908-1.488-2.245-2.232-4.01-2.232-1.766 0-3.103.744-4.01 2.232-.909 1.488-1.363 3.645-1.363 6.47 0 2.825.454 4.981 1.362 6.47zm34.955-8.778v4.578h-6.243v6.243h-4.578v-6.243h-6.205v-4.578h6.205V5.692h4.578v6.205h6.243z" fill="#FF5722"/></svg>