<svg width="106" height="27" fill="none" xmlns="http://www.w3.org/2000/svg"><path d="M.184 26.48v-3.82l8.787-9.123c1.96-2.077 2.941-3.808 2.941-5.192 0-1.014-.319-1.83-.956-2.448-.613-.618-1.41-.927-2.39-.927-1.936 0-3.37 1.014-4.301 3.041L0 5.489c.809-1.78 1.973-3.14 3.493-4.08a9.325 9.325 0 015-1.409c2.328 0 4.326.742 5.993 2.225 1.666 1.46 2.5 3.437 2.5 5.934 0 2.695-1.41 5.465-4.228 8.308L7.72 21.548h9.669v4.933H.184zm34.463-13.5c2.377 1.435 3.566 3.524 3.566 6.269 0 2.398-.834 4.29-2.5 5.674C34.07 26.308 31.828 27 28.985 27c-2.868 0-5.123-.692-6.765-2.077-1.642-1.384-2.463-3.276-2.463-5.674 0-2.745 1.176-4.834 3.529-6.268-1.79-1.31-2.684-3.103-2.684-5.378 0-2.398.797-4.265 2.39-5.6C24.609.668 26.607 0 28.985 0c2.377 0 4.362.668 5.956 2.003 1.593 1.335 2.39 3.202 2.39 5.6 0 2.3-.895 4.092-2.684 5.378zm-3.273-7.343c-.612-.544-1.409-.816-2.39-.816-.98 0-1.776.272-2.39.816-.612.544-.918 1.286-.918 2.226s.306 1.693.919 2.262c.613.544 1.41.816 2.39.816.98 0 1.777-.272 2.39-.816.612-.569.919-1.323.919-2.262 0-.94-.307-1.682-.92-2.226zm-5.44 15.614c.783.618 1.8.928 3.05.928 1.25 0 2.255-.31 3.015-.928.785-.643 1.177-1.533 1.177-2.67 0-1.113-.392-1.978-1.177-2.596-.76-.643-1.764-.964-3.014-.964-1.25 0-2.268.321-3.052.964-.76.618-1.14 1.483-1.14 2.596 0 1.137.38 2.027 1.14 2.67zM66.572 7.937V26.48h-4.743V12.536h-5.073v6.193c0 5.737-2.586 8.32-7.758 7.752v-4.488c.98.247 1.728.087 2.243-.482.515-.593.772-1.607.772-3.041V7.937h14.559zm8.305 11.237c.638 2.325 2.366 3.487 5.184 3.487 1.814 0 3.186-.618 4.118-1.855l3.823 2.226C86.19 25.677 83.517 27 79.989 27c-3.04 0-5.478-.927-7.317-2.782-1.838-1.854-2.757-4.19-2.757-7.01 0-2.793.907-5.117 2.72-6.972 1.814-1.879 4.143-2.818 6.986-2.818 2.696 0 4.914.94 6.654 2.818 1.765 1.88 2.648 4.204 2.648 6.973 0 .618-.062 1.273-.184 1.965h-13.86zm-.073-3.708h9.375c-.27-1.261-.834-2.2-1.691-2.819-.834-.618-1.79-.927-2.868-.927-1.275 0-2.329.334-3.162 1.001-.833.643-1.385 1.558-1.654 2.745zM106 7.937v4.599h-5.735V26.48h-4.743V12.536h-5.81v-4.6H106z" fill="#FF5722"/></svg>