<svg width="30" height="30" fill="none" xmlns="http://www.w3.org/2000/svg"><path d="M14.906 30c8.233 0 14.906-6.716 14.906-15 0-8.284-6.673-15-14.906-15C6.674 0 0 6.716 0 15c0 8.284 6.674 15 14.906 15z" fill="url(#paint0_linear)"/><path fill-rule="evenodd" clip-rule="evenodd" d="M14.906 0C6.674 0 0 6.716 0 15c0 8.284 6.674 15 14.906 15 8.233 0 14.906-6.716 14.906-15 0-8.284-6.673-15-14.906-15zM11.63 7.048C12.477 7.01 12.748 7 14.907 7h-.002c2.16 0 2.43.01 3.277.048.847.04 1.425.174 1.931.372.524.204.966.478 1.408.923.442.444.714.89.918 1.417.195.508.33 1.09.37 1.941.037.854.047 1.126.047 3.3 0 2.172-.01 2.444-.048 3.297-.04.852-.174 1.433-.37 1.942a3.932 3.932 0 01-.917 1.417 3.888 3.888 0 01-1.407.923c-.506.198-1.084.333-1.93.372-.849.039-1.119.048-3.278.048s-2.43-.01-3.278-.048c-.846-.04-1.424-.174-1.93-.372a3.891 3.891 0 01-1.407-.923 3.923 3.923 0 01-.917-1.417c-.197-.509-.33-1.09-.37-1.942-.038-.853-.048-1.125-.048-3.298s.01-2.445.048-3.299c.038-.851.172-1.433.37-1.941a3.93 3.93 0 01.917-1.417 3.89 3.89 0 011.408-.923c.506-.198 1.084-.333 1.93-.372z" fill="#fff"/><path fill-rule="evenodd" clip-rule="evenodd" d="M14.19 8.442h.714c2.123 0 2.374.007 3.213.046.775.035 1.195.166 1.476.275.37.145.635.319.913.599.279.28.45.546.595.92.109.281.239.705.274 1.485.038.843.046 1.096.046 3.231s-.008 2.389-.046 3.232c-.035.78-.165 1.203-.274 1.485a2.46 2.46 0 01-.595.919c-.278.28-.542.453-.913.598-.28.11-.701.24-1.476.276-.838.038-1.09.047-3.213.047s-2.374-.009-3.212-.047c-.776-.036-1.196-.166-1.477-.276a2.461 2.461 0 01-.914-.598 2.48 2.48 0 01-.595-.92c-.109-.281-.238-.705-.274-1.485-.038-.843-.045-1.096-.045-3.233 0-2.136.007-2.388.045-3.231.036-.78.165-1.204.274-1.486a2.48 2.48 0 01.595-.92c.278-.28.543-.453.914-.598.28-.11.701-.24 1.477-.276.733-.034 1.017-.044 2.499-.045v.002zm4.958 1.328a.957.957 0 00-.954.96c0 .53.427.96.954.96.527 0 .954-.43.954-.96s-.427-.96-.954-.96zM10.822 15c0-2.269 1.828-4.108 4.082-4.108 2.255 0 4.082 1.84 4.082 4.108 0 2.27-1.827 4.108-4.082 4.108S10.822 17.269 10.822 15z" fill="#fff"/><path d="M14.908 12.334A2.658 2.658 0 0117.558 15a2.659 2.659 0 01-2.65 2.667A2.658 2.658 0 0112.258 15a2.658 2.658 0 012.65-2.666z" fill="#fff"/><defs><linearGradient id="paint0_linear" x1="8.5" y1="1.5" x2="5.5" y2="31.5" gradientUnits="userSpaceOnUse"><stop stop-color="#9A492F"/><stop offset=".393" stop-color="#FF5722"/><stop offset="1" stop-color="#FF5722"/></linearGradient></defs></svg>