<svg width="195" height="57" fill="none" xmlns="http://www.w3.org/2000/svg"><path d="M6.968 47l-.741-2.041H2.132L1.391 47H.104l3.393-9.1h1.365L8.255 47H6.968zm-4.42-3.172h3.263l-1.638-4.485-1.625 4.485zm10.537-2.353c.79 0 1.456.269 2.002.806a2.61 2.61 0 01.82 1.95c0 .789-.274 1.447-.82 1.976-.537.529-1.204.793-2.002.793H9.668v-9.1h5.46v1.144h-4.252v2.431h2.21zm0 4.394c.451 0 .832-.156 1.144-.468.321-.312.482-.702.482-1.17 0-.46-.16-.845-.482-1.157a1.556 1.556 0 00-1.143-.468h-2.21v3.263h2.21zm8.738 1.3c-1.378 0-2.518-.455-3.42-1.365-.892-.91-1.338-2.028-1.338-3.354s.446-2.444 1.338-3.354c.902-.91 2.042-1.365 3.42-1.365.831 0 1.594.2 2.287.598a4.305 4.305 0 011.639 1.612l-1.053.611a2.878 2.878 0 00-1.17-1.196 3.275 3.275 0 00-1.703-.455c-1.05 0-1.907.338-2.575 1.014-.658.676-.988 1.521-.988 2.535 0 1.005.33 1.846.988 2.522.668.676 1.526 1.014 2.575 1.014a3.35 3.35 0 001.703-.442 2.98 2.98 0 001.17-1.196l1.052.598a4.302 4.302 0 01-1.625 1.625 4.58 4.58 0 01-2.3.598zm13.173-1.378c-.91.919-2.023 1.378-3.34 1.378-1.318 0-2.432-.46-3.342-1.378-.91-.919-1.365-2.032-1.365-3.341 0-1.317.455-2.431 1.365-3.341.91-.919 2.024-1.378 3.341-1.378 1.318 0 2.431.46 3.341 1.378.92.91 1.378 2.024 1.378 3.341 0 1.309-.459 2.422-1.378 3.341zm-5.85-.819c.676.676 1.513 1.014 2.51 1.014.996 0 1.828-.338 2.495-1.014.676-.685 1.014-1.525 1.014-2.522 0-1.005-.338-1.846-1.014-2.522-.667-.685-1.499-1.027-2.496-1.027-.996 0-1.833.342-2.509 1.027-.667.676-1 1.517-1 2.522 0 .997.333 1.837 1 2.522zM36.852 47v-1.092c.598.087 1.045-.078 1.34-.494.303-.425.454-1.209.454-2.353V37.9h6.006V47h-1.209v-7.956h-3.588v4.017c0 .815-.078 1.5-.234 2.054-.147.546-.364.958-.65 1.235a2.212 2.212 0 01-.936.572c-.338.095-.732.121-1.183.078zm17.504-9.269c1.318 0 2.431.46 3.341 1.378.919.91 1.378 2.024 1.378 3.341 0 1.309-.46 2.422-1.378 3.341-.91.919-2.023 1.378-3.34 1.378-1.231 0-2.284-.407-3.16-1.222-.875-.823-1.37-1.842-1.482-3.055h-1.56V47h-1.209v-9.1h1.21v3.848h1.598c.165-1.153.676-2.11 1.534-2.873.858-.763 1.88-1.144 3.068-1.144zm-2.509 7.241c.676.676 1.513 1.014 2.51 1.014.996 0 1.828-.338 2.495-1.014.676-.685 1.014-1.525 1.014-2.522 0-1.005-.338-1.846-1.014-2.522-.667-.685-1.5-1.027-2.496-1.027s-1.833.342-2.509 1.027c-.667.676-1 1.517-1 2.522 0 .997.333 1.837 1 2.522zM66.172 37.9v1.144H63.48V47h-1.196v-7.956h-2.678V37.9h6.565zm7.163 0h1.196V47h-1.196v-4.095h-4.42V47h-1.209v-9.1h1.21v3.861h4.42V37.9zM82.81 47l-.741-2.041h-4.095L77.233 47h-1.287l3.393-9.1h1.365l3.393 9.1H82.81zm-4.42-3.172h3.263l-1.638-4.485-1.625 4.485zM91.67 37.9V47h-1.197v-3.484h-1.807L86.313 47h-1.365l2.418-3.562a2.732 2.732 0 01-1.547-.988 2.703 2.703 0 01-.61-1.729c0-.78.272-1.443.818-1.989a2.73 2.73 0 012.002-.832h3.64zm-3.64 4.524h2.443v-3.393H88.03c-.442 0-.823.165-1.144.494-.32.33-.48.728-.48 1.196 0 .468.16.871.48 1.209.321.33.702.494 1.144.494zm12.819-4.524c.84 0 1.538.282 2.093.845.563.555.845 1.248.845 2.08 0 .823-.282 1.517-.845 2.08-.555.563-1.253.845-2.093.845h-2.094V47h-1.209v-9.1h3.303zm0 4.719c.502 0 .918-.169 1.248-.507.329-.347.494-.776.494-1.287 0-.52-.165-.949-.494-1.287-.33-.338-.746-.507-1.248-.507h-2.094v3.588h2.094zm12.206 3.172c-.91.919-2.024 1.378-3.341 1.378-1.317 0-2.431-.46-3.341-1.378-.91-.919-1.365-2.032-1.365-3.341 0-1.317.455-2.431 1.365-3.341.91-.919 2.024-1.378 3.341-1.378 1.317 0 2.431.46 3.341 1.378.919.91 1.378 2.024 1.378 3.341 0 1.309-.459 2.422-1.378 3.341zm-5.85-.819c.676.676 1.512 1.014 2.509 1.014.997 0 1.829-.338 2.496-1.014.676-.685 1.014-1.525 1.014-2.522 0-1.005-.338-1.846-1.014-2.522-.667-.685-1.499-1.027-2.496-1.027-.997 0-1.833.342-2.509 1.027-.667.676-1.001 1.517-1.001 2.522 0 .997.334 1.837 1.001 2.522zm12.438-3.497c.789 0 1.456.269 2.002.806a2.61 2.61 0 01.819 1.95c0 .789-.273 1.447-.819 1.976-.537.529-1.204.793-2.002.793h-3.419v-9.1h5.46v1.144h-4.251v2.431h2.21zm0 4.394c.451 0 .832-.156 1.144-.468.321-.312.481-.702.481-1.17 0-.46-.16-.845-.481-1.157a1.556 1.556 0 00-1.144-.468h-2.21v3.263h2.21zm12.026-.078c-.91.919-2.023 1.378-3.341 1.378-1.317 0-2.431-.46-3.341-1.378-.91-.919-1.365-2.032-1.365-3.341 0-1.317.455-2.431 1.365-3.341.91-.919 2.024-1.378 3.341-1.378 1.318 0 2.431.46 3.341 1.378.919.91 1.378 2.024 1.378 3.341 0 1.309-.459 2.422-1.378 3.341zm-5.85-.819c.676.676 1.513 1.014 2.509 1.014.997 0 1.829-.338 2.496-1.014.676-.685 1.014-1.525 1.014-2.522 0-1.005-.338-1.846-1.014-2.522-.667-.685-1.499-1.027-2.496-1.027-.996 0-1.833.342-2.509 1.027-.667.676-1.001 1.517-1.001 2.522 0 .997.334 1.837 1.001 2.522zm14.323-7.072v1.144h-2.691V47h-1.196v-7.956h-2.678V37.9h6.565zm7.19 9.1v-6.786L142.652 47h-.975v-9.1h1.209v6.799l4.68-6.799h.975V47h-1.209zm7.875-4.706c.468.2.832.49 1.092.871.26.381.39.832.39 1.352 0 .78-.294 1.417-.884 1.911-.58.494-1.352.741-2.314.741-.875 0-1.581-.195-2.119-.585a3.13 3.13 0 01-1.118-1.508l1.027-.585c.269 1.023 1.006 1.534 2.21 1.534.633 0 1.123-.139 1.469-.416.347-.286.52-.663.52-1.131 0-.468-.164-.845-.494-1.131-.32-.286-.771-.429-1.352-.429h-1.066v-1.105h.767c.555 0 .997-.134 1.326-.403.33-.277.494-.637.494-1.079 0-.433-.156-.784-.468-1.053-.303-.277-.728-.416-1.274-.416-1.005 0-1.677.446-2.015 1.339l-1.014-.585c.546-1.257 1.556-1.885 3.029-1.885.876 0 1.582.243 2.119.728.546.485.819 1.1.819 1.846 0 .867-.381 1.53-1.144 1.989zM164.456 47l-.741-2.041h-4.095L158.879 47h-1.287l3.393-9.1h1.365l3.393 9.1h-1.287zm-4.42-3.172h3.263l-1.638-4.485-1.625 4.485zm13.723 2.028h.975v2.886h-1.209V47h-6.37v-9.1h1.209v7.956h4.186V37.9h1.209v7.956zM182.123 47v-6.786L177.443 47h-.975v-9.1h1.209v6.799l4.68-6.799h.975V47h-1.209zm9.617-9.1V47h-1.196v-3.484h-1.807L186.384 47h-1.365l2.418-3.562a2.73 2.73 0 01-1.547-.988 2.705 2.705 0 01-.611-1.729c0-.78.273-1.443.819-1.989a2.73 2.73 0 012.002-.832h3.64zm-3.64 4.524h2.444v-3.393H188.1c-.442 0-.823.165-1.144.494a1.65 1.65 0 00-.481 1.196c0 .468.16.871.481 1.209.321.33.702.494 1.144.494z" fill="#3A3E3E" fill-opacity=".5"/><path d="M14.64 17.11c1.84 1.06 2.76 2.66 2.76 4.8 0 1.78-.63 3.24-1.89 4.38C14.25 27.43 12.7 28 10.86 28H1.95V7h8.28c1.8 0 3.31.56 4.53 1.68 1.24 1.1 1.86 2.51 1.86 4.23 0 1.74-.66 3.14-1.98 4.2zm-4.41-6.24H6.09v4.62h4.14c.64 0 1.17-.22 1.59-.66.44-.44.66-.99.66-1.65 0-.66-.21-1.21-.63-1.65-.42-.44-.96-.66-1.62-.66zm.63 13.26c.7 0 1.28-.23 1.74-.69.46-.48.69-1.08.69-1.8 0-.7-.23-1.28-.69-1.74-.46-.48-1.04-.72-1.74-.72H6.09v4.95h4.77zm13.394-.09h8.85V28h-12.99V7h12.84v3.96h-8.7v4.47h7.95v3.9h-7.95v4.71zm15.908 0h8.01V28h-12.15V7h4.14v17.04zm22.902-13.08h-8.4v4.98h8.16v3.96h-8.16V28h-4.14V7h12.54v3.96zM66.081 7h4.14v21h-4.14V7zm20.177 0h4.14v21h-3.15l-9-12.84V28h-4.14V7h3.15l9 12.81V7z" fill="#3A3E3E"/><path d="M114.904 16.72v1.62c0 3-.96 5.43-2.88 7.29-1.92 1.86-4.4 2.79-7.44 2.79-3.24 0-5.93-1.05-8.07-3.15-2.12-2.12-3.18-4.7-3.18-7.74 0-3.06 1.05-5.65 3.15-7.77 2.12-2.12 4.74-3.18 7.86-3.18 1.96 0 3.75.45 5.37 1.35 1.62.88 2.88 2.06 3.78 3.54l-3.54 2.04c-.5-.86-1.26-1.56-2.28-2.1-1-.54-2.12-.81-3.36-.81-2 0-3.65.66-4.95 1.98-1.28 1.3-1.92 2.95-1.92 4.95 0 1.98.65 3.62 1.95 4.92 1.32 1.28 3.06 1.92 5.22 1.92 1.6 0 2.92-.35 3.96-1.05 1.06-.72 1.78-1.7 2.16-2.94h-6.36v-3.66h10.53zM129.368 28l-4.23-7.29h-3.15V28h-4.14V7h8.4c1.94 0 3.59.68 4.95 2.04 1.36 1.36 2.04 3 2.04 4.92 0 1.3-.37 2.51-1.11 3.63a6.986 6.986 0 01-2.94 2.49l4.65 7.92h-4.47zm-7.38-17.13v6.21h4.26c.78 0 1.45-.3 2.01-.9.56-.62.84-1.36.84-2.22 0-.86-.28-1.59-.84-2.19-.56-.6-1.23-.9-2.01-.9h-4.26zm31.724 14.4c-2.12 2.1-4.7 3.15-7.74 3.15s-5.62-1.05-7.74-3.15c-2.1-2.12-3.15-4.71-3.15-7.77 0-3.06 1.05-5.64 3.15-7.74 2.12-2.12 4.7-3.18 7.74-3.18s5.62 1.06 7.74 3.18c2.12 2.1 3.18 4.68 3.18 7.74 0 3.06-1.06 5.65-3.18 7.77zm-12.57-2.82c1.3 1.28 2.91 1.92 4.83 1.92s3.53-.64 4.83-1.92c1.3-1.3 1.95-2.95 1.95-4.95s-.65-3.65-1.95-4.95c-1.3-1.3-2.91-1.95-4.83-1.95s-3.53.65-4.83 1.95c-1.3 1.3-1.95 2.95-1.95 4.95s.65 3.65 1.95 4.95zm26.343 5.97c-2.34 0-4.26-.66-5.76-1.98-1.5-1.32-2.25-3.09-2.25-5.31V7h4.11v13.8c0 1.1.31 1.97.93 2.61.64.64 1.63.96 2.97.96 1.34 0 2.32-.32 2.94-.96.64-.64.96-1.51.96-2.61V7h4.14v14.13c0 2.22-.75 3.99-2.25 5.31-1.5 1.32-3.43 1.98-5.79 1.98zM187.085 7c2.02 0 3.72.68 5.1 2.04 1.38 1.36 2.07 3.03 2.07 5.01s-.69 3.65-2.07 5.01c-1.38 1.36-3.08 2.04-5.1 2.04h-3.69V28h-4.14V7h7.83zm0 10.23c.88 0 1.61-.3 2.19-.9.58-.62.87-1.38.87-2.28 0-.92-.29-1.68-.87-2.28-.58-.6-1.31-.9-2.19-.9h-3.69v6.36h3.69z" fill="#FF5722"/></svg>