<svg width="26" height="26" fill="none" xmlns="http://www.w3.org/2000/svg"><path d="M6.5 0a1.63 1.63 0 00-1.625 1.625v22.75A1.63 1.63 0 006.5 26h16.25a1.63 1.63 0 001.625-1.625V6.5l-6.5-6.5H6.5z" fill="#E2E5E7"/><path d="M19.5 6.5h4.875l-6.5-6.5v4.875A1.63 1.63 0 0019.5 6.5z" fill="#B0B7BD"/><path d="M24.375 11.375L19.5 6.5h4.875v4.875z" fill="#CAD1D8"/><path d="M21.125 21.125a.815.815 0 01-.813.813H2.438a.815.815 0 01-.812-.813V13c0-.447.366-.813.813-.813h17.875c.446 0 .812.366.812.813v8.125z" fill="#F15642"/><path d="M5.166 15.394c0-.214.169-.448.441-.448h1.5c.846 0 1.606.565 1.606 1.65 0 1.026-.76 1.598-1.605 1.598H6.023v.858c0 .286-.182.448-.416.448a.438.438 0 01-.441-.448v-3.658zm.857.37v1.619h1.085c.435 0 .78-.385.78-.788 0-.454-.345-.83-.78-.83H6.023zM9.986 19.5c-.215 0-.449-.117-.449-.402v-3.69c0-.234.234-.404.449-.404h1.487c2.97 0 2.904 4.496.059 4.496H9.986zm.41-3.703v2.91h1.077c1.754 0 1.832-2.91 0-2.91h-1.078zm5.034.053v1.032h1.657c.234 0 .468.234.468.46 0 .215-.234.39-.468.39H15.43v1.365c0 .227-.162.402-.39.402-.285 0-.46-.174-.46-.402v-3.69c0-.233.176-.403.46-.403h2.282c.286 0 .454.17.454.403a.449.449 0 01-.454.442H15.43z" fill="#fff"/><path d="M20.313 21.938H4.874v.812h15.438a.815.815 0 00.812-.813v-.812a.815.815 0 01-.813.813z" fill="#CAD1D8"/></svg>