<svg width="26" height="26" fill="none" xmlns="http://www.w3.org/2000/svg"><path d="M25.494 15.292c-.32-.177-.728-.138-1.118.107l-7.197 4.532a.429.429 0 10.457.725l7.197-4.532c.152-.095.235-.088.247-.081.013.006.063.073.063.253 0 .482-.358 1.131-.767 1.389l-6.977 4.393c-.371.234-.71.298-.93.176-.22-.121-.347-.443-.347-.881 0-1.11.794-2.55 1.734-3.141L25.8 13.23a.428.428 0 000-.726L10.535 2.892a.428.428 0 00-.457 0l-8.04 5.063C.895 8.675 0 10.296 0 11.647v.228c0 1.35.895 2.972 2.038 3.691l11.96 7.531a.429.429 0 00.456-.725L2.494 14.84c-.887-.559-1.637-1.917-1.637-2.966v-.228c0-1.05.75-2.407 1.637-2.966l7.813-4.92 14.46 9.106-7.368 4.64c-1.197.753-2.134 2.452-2.134 3.866 0 .771.28 1.35.79 1.632.204.113.43.169.668.169.356 0 .742-.125 1.133-.37l6.977-4.394c.654-.412 1.167-1.341 1.167-2.114 0-.46-.184-.827-.506-1.004z" fill="#000"/><path d="M20.21 13.296a.428.428 0 00.229-.792L10.536 6.27a.429.429 0 00-.457.725l9.903 6.236a.43.43 0 00.228.066zm-1.716 1.137a.428.428 0 00.229-.792l-4.184-2.623a.428.428 0 10-.455.726l4.183 2.623c.071.045.15.066.227.066zm-5.702-2.287a.429.429 0 00-.454.727l4.216 2.632a.427.427 0 00.59-.136.429.429 0 00-.136-.59l-4.216-2.633zM8.297 7.39L4.735 9.633a.428.428 0 00.002.727L8.985 13a.428.428 0 00.459-.004l.946-.611a.429.429 0 00-.465-.72l-.718.464-3.435-2.136 2.754-1.735 3.385 2.123-.394.255a.429.429 0 00.465.72l.96-.62a.429.429 0 00-.005-.724L8.753 7.39a.428.428 0 00-.456 0zm7.138 9.115a.429.429 0 00-.138-.59l-4.248-2.641a.428.428 0 10-.452.728l4.248 2.64a.427.427 0 00.59-.137zM3.06 11.02a.429.429 0 00.138.591l10.485 6.519a.426.426 0 00.59-.138.428.428 0 00-.138-.59L3.651 10.883a.428.428 0 00-.59.138z" fill="#FF5722"/></svg>