<svg width="26" height="26" fill="none" xmlns="http://www.w3.org/2000/svg"><g clip-path="url(#clip0_537:8694)"><path d="M22.295 11.054a.38.38 0 10-.379.66c2.11 1.208 3.271 2.765 3.271 4.384 0 3.147-4.436 5.894-10.319 6.39a.381.381 0 00.064.759c3.003-.253 5.762-1.087 7.77-2.35 2.094-1.314 3.247-3.019 3.247-4.8 0-1.903-1.298-3.695-3.654-5.043zm-9.027 12.103a.275.275 0 00.02-.035l.006-.012a.342.342 0 00.024-.066l.003-.012a.388.388 0 00.005-.03l.002-.011a.414.414 0 000-.084l-.002-.01a.373.373 0 00-.005-.031l-.003-.012a.417.417 0 00-.044-.104l-.006-.01a.36.36 0 00-.021-.028l-.003-.005a.308.308 0 00-.028-.03l-.008-.007a.405.405 0 00-.023-.02l-.004-.003-2-1.537a.381.381 0 00-.464.604l1.074.825c-2.87-.143-5.529-.816-7.583-1.931C1.953 19.383.71 17.782.71 16.098c0-1.62 1.161-3.176 3.27-4.383a.381.381 0 00-.378-.661C1.247 12.402-.05 14.194-.05 16.098c0 1.976 1.384 3.815 3.896 5.179 2.178 1.183 4.992 1.89 8.016 2.028l-1.144.879a.38.38 0 00.464.604l2-1.537.004-.004a.407.407 0 00.023-.019l.008-.008a.324.324 0 00.052-.063z" fill="#E4511E"/><path d="M5.29 14.353l7.487 3.815.012.005.018.008.029.01.017.005a.36.36 0 00.033.007l.015.003a.41.41 0 00.097 0l.015-.003a.31.31 0 00.033-.007l.017-.005a.552.552 0 00.03-.01l.017-.008.013-.005 7.486-3.815a.38.38 0 00.208-.34v-1.53a.38.38 0 00-.762 0v1.298l-6.725 3.426V9.46l6.725-3.426v4.926a.38.38 0 00.762 0V5.414a.363.363 0 00-.003-.051l-.004-.017-.007-.033-.006-.019a.304.304 0 00-.033-.073l-.012-.018a.362.362 0 00-.016-.023l-.014-.017a.418.418 0 00-.077-.067l-.01-.007-.014-.007-.012-.008-7.487-3.814a.38.38 0 00-.345 0l-1.077.55a.381.381 0 00.345.679l.905-.461 6.647 3.387-.416.212-6.231 3.175-6.232-3.175-.416-.212 4.382-2.233a.38.38 0 00-.346-.678L5.29 5.074l-.012.008-.014.007-.01.007a.304.304 0 00-.058.046.31.31 0 00-.019.02l-.014.018a.367.367 0 00-.016.023l-.012.018a.412.412 0 00-.022.044.125.125 0 00-.01.029l-.007.02a.375.375 0 00-.007.032c-.001.006-.003.01-.003.017a.399.399 0 00-.004.05v2.91a.38.38 0 10.762 0V6.034l6.725 3.426v7.746L5.844 13.78V9.846a.38.38 0 10-.762 0v4.168c0 .143.08.274.208.34z" fill="#3A3E3E"/></g><defs><clipPath id="clip0_537:8694"><path fill="#fff" d="M0 0h26v26H0z"/></clipPath></defs></svg>