<svg width="27" height="27" viewBox="0 0 27 27" fill="none" xmlns="http://www.w3.org/2000/svg">
	<path d="M27 13.5C27 20.9558 20.9558 27 13.5 27C6.04416 27 0 20.9558 0 13.5C0 6.04416 6.04416 0 13.5 0C20.9558 0 27 6.04416 27 13.5Z" fill="#4992FF"/>
	<path d="M9.20936 7.18318H6.33834V8.45668H7.37191C8.12868 8.45668 8.72792 8.64484 9.16961 9.02117C9.61425 9.39449 9.83657 9.89877 9.83657 10.534C9.83657 11.1723 9.61572 11.6856 9.17403 12.0739C8.73528 12.4593 8.15077 12.655 7.42049 12.661H5V6.0858H9.20936V7.18318ZM6.33834 9.54953V11.5727H7.39399C7.73263 11.5727 8.00206 11.4778 8.2023 11.2882C8.40548 11.0985 8.50707 10.8441 8.50707 10.525C8.50707 10.2269 8.40989 9.9921 8.21555 9.82049C8.02415 9.64587 7.7606 9.55556 7.42491 9.54953H6.33834Z" fill="white"/>
	<path d="M14.5406 6.0858H15.8701V12.661H14.5406V8.2941L11.9655 12.661H10.6405V6.0858H11.9655V10.4618L14.5406 6.0858Z" fill="white"/>
	<path d="M20.1899 7.8967C20.1899 7.64682 20.0942 7.45112 19.9028 7.30962C19.7114 7.16511 19.4582 7.09286 19.1431 7.09286C18.8604 7.09286 18.6249 7.16511 18.4364 7.30962C18.2509 7.45112 18.1581 7.63628 18.1581 7.86509H16.833C16.833 7.50983 16.9302 7.1907 17.1246 6.90771C17.3218 6.6217 17.6001 6.39891 17.9594 6.23935C18.3216 6.07978 18.7161 6 19.1431 6C19.8852 6 20.4667 6.16257 20.8878 6.48772C21.3089 6.81287 21.5194 7.2735 21.5194 7.8696C21.5194 8.16163 21.4326 8.43259 21.2588 8.68247C21.088 8.93235 20.8436 9.13256 20.5256 9.28309C20.879 9.40954 21.1499 9.60222 21.3383 9.86113C21.5268 10.117 21.621 10.4362 21.621 10.8185C21.621 11.4086 21.3943 11.8783 20.9408 12.2275C20.4903 12.5737 19.891 12.7468 19.1431 12.7468C18.6749 12.7468 18.2538 12.6655 17.8799 12.503C17.5059 12.3374 17.2217 12.1131 17.0274 11.8301C16.836 11.5441 16.7403 11.2129 16.7403 10.8366H18.0742C18.0742 11.0714 18.1743 11.2686 18.3746 11.4282C18.5748 11.5847 18.831 11.663 19.1431 11.663C19.4965 11.663 19.7747 11.5817 19.9779 11.4191C20.184 11.2566 20.2871 11.0503 20.2871 10.8005C20.2871 10.4572 20.1958 10.2119 20.0133 10.0644C19.8307 9.91382 19.5642 9.83856 19.2138 9.83856H18.4231V8.77731H19.2403C19.8734 8.76828 20.1899 8.47474 20.1899 7.8967Z" fill="white"/>
	<path d="M25 10.3714H22.5133V9.31922H25V10.3714Z" fill="white"/>
	<path d="M10.2473 21.9097H8.92226V19.0917H6.33834V21.9097H5.01325V15.3345H6.33834V17.9989H8.92226V15.3345H10.2473V21.9097Z" fill="white"/>
	<path d="M15.2783 19.0601H12.7341V20.8213H15.72V21.9097H11.409V15.3345H15.7111V16.4318H12.7341V17.9989H15.2783V19.0601Z" fill="white"/>
	<path d="M21.5459 19.7194C21.4959 20.4269 21.2397 20.9839 20.7774 21.3903C20.318 21.7968 19.7114 22 18.9576 22C18.1331 22 17.4838 21.717 17.0097 21.151C16.5386 20.582 16.303 19.8022 16.303 18.8117V18.4098C16.303 17.7776 16.412 17.2206 16.6299 16.7389C16.8478 16.2572 17.1584 15.8884 17.5618 15.6325C17.9682 15.3736 18.4393 15.2441 18.9753 15.2441C19.7173 15.2441 20.3151 15.4474 20.7686 15.8538C21.222 16.2602 21.4841 16.8307 21.5548 17.5653H20.2297C20.1973 17.1408 20.081 16.8338 19.8807 16.6441C19.6835 16.4514 19.3816 16.3551 18.9753 16.3551C18.5336 16.3551 18.2023 16.5176 17.9814 16.8428C17.7635 17.1649 17.6516 17.6662 17.6458 18.3466V18.8434C17.6458 19.5539 17.7503 20.0732 17.9594 20.4014C18.1714 20.7295 18.5041 20.8936 18.9576 20.8936C19.3669 20.8936 19.6717 20.7988 19.8719 20.6091C20.0751 20.4164 20.1914 20.1199 20.2208 19.7194H21.5459Z" fill="white"/>
</svg>
