<svg width="263" height="59" viewBox="0 0 263 59" fill="none" xmlns="http://www.w3.org/2000/svg">
<path d="M22.413 16.6922C22.447 16.9642 22.4172 17.2778 22.4742 17.5345C22.5099 17.6943 22.5804 17.8362 22.7274 17.9331C23.1099 18.1796 23.6887 17.8693 24.1825 17.815C24.3559 17.7963 24.5301 17.7708 24.7026 17.7495C25.131 17.6943 25.5568 17.6322 25.9809 17.5574C26.0846 17.5404 26.1781 17.5387 26.2673 17.5396C26.5937 17.5472 26.8512 17.6781 27.0161 17.9883C27.2192 18.3725 27.5328 18.6334 27.911 18.845C28.5774 17.8753 29.457 17.084 30.4931 16.5256C30.839 16.3378 31.2019 16.1831 31.5733 16.0497C31.7458 15.9885 31.7569 15.6647 31.5775 15.5661C30.1301 14.7689 28.2561 14.3847 26.2359 14.6031C24.757 14.7629 23.398 15.2227 22.2549 15.8865C22.3518 16.0973 22.3433 16.3378 22.3943 16.5647C22.4028 16.6081 22.407 16.6463 22.413 16.6922Z" fill="#C40406"/>
<path d="M10.1539 15.3426C10.2168 15.3307 10.278 15.3188 10.3409 15.3077C10.278 15.3188 10.2168 15.3315 10.1539 15.3426C11.0149 15.567 11.8716 15.8874 12.6492 16.3047C12.7716 16.3242 12.9578 16.4109 13.2238 16.5835C13.5204 16.0625 14.242 15.5449 15.98 15.3766C16.0072 15.374 16.031 15.3621 16.0574 15.3604C16.2869 15.3485 16.5095 15.3842 16.7305 15.4488C16.96 15.5296 17.1733 15.6435 17.4232 15.6715C17.4546 15.6137 17.492 15.5525 17.5201 15.4964C16.2733 14.6287 14.6975 14.0235 12.9569 13.828C11.3132 13.6453 9.76635 13.8603 8.46599 14.3737C8.03253 14.5454 7.59398 14.9712 7.76651 14.978C7.98579 14.9865 8.20932 15.0035 8.43709 15.029C8.99548 15.0868 9.57682 15.193 10.1539 15.3426ZM14.2649 15.4106C14.2063 15.3961 14.1476 15.3876 14.0898 15.3732C14.1476 15.3876 14.2063 15.397 14.2649 15.4106ZM12.141 15.165C11.9566 15.1624 11.7721 15.1658 11.5903 15.1735C11.7721 15.1658 11.9557 15.1624 12.141 15.165ZM11.348 15.1845C11.122 15.199 10.9001 15.2202 10.6817 15.2508C10.8993 15.2202 11.1211 15.1981 11.348 15.1845Z" fill="#C40406"/>
<path d="M43.483 22.883C43.2153 20.8985 42.3391 19.2267 40.7888 18.0683C39.3108 16.9634 37.2787 16.388 35.3001 16.4917C34.7247 16.5214 34.1527 16.6022 33.6003 16.7535C32.7121 16.994 31.2027 17.3696 30.1836 17.9042C29.9074 18.0479 28.8297 18.704 28.8765 18.7422C28.9428 18.7958 29.1867 19.0703 29.219 19.1069C29.3966 19.3023 30.1105 19.7868 30.0103 19.9236C30.0094 19.9245 30.0086 19.9253 30.0086 19.9262C30.0595 19.9602 30.1088 19.9976 30.1564 20.0367C30.9426 20.3826 32.7759 20.9614 33.4167 21.7135C34.7817 23.3088 35.5772 25.6758 35.6562 28.4652C35.618 29.0143 35.5279 29.7579 35.3332 30.6708C35.2474 31.0745 35.1395 31.5071 35.0094 31.9711C34.8505 32.5261 34.6771 33.127 34.4884 33.767C34.3142 34.4223 34.106 35.1311 33.8425 35.9181C33.8085 36.0184 33.7771 36.1119 33.7439 36.2113C33.4133 37.261 33.0419 38.3956 32.6161 39.6271C31.2222 43.6481 30.3885 46.4171 29.6431 48.6005C29.5547 48.9676 29.4604 49.3119 29.3422 49.5949C29.3456 49.5473 29.3482 49.5005 29.3507 49.4529C29.3303 49.5473 29.3082 49.6382 29.2836 49.7309C29.2096 49.9076 29.1246 50.0802 29.0473 50.2544C28.919 50.5893 28.7898 50.9122 28.6563 51.2284C28.6606 51.1944 28.664 51.1604 28.6665 51.1281C28.6487 51.1944 28.6317 51.2616 28.6139 51.327C28.4745 51.6517 28.3308 51.9687 28.1804 52.2772C27.7537 53.1569 27.271 53.9906 26.6752 54.849L26.5086 55.0403L26.184 55.4117L25.9341 55.6998C26.597 55.7618 27.8659 55.8791 27.9722 55.8885C33.0232 56.3644 34.3839 53.4441 35.3307 50.0402C35.8296 48.2495 36.2928 46.4698 36.8036 44.7019C37.6059 41.9236 38.4847 39.5268 39.7026 36.8624C40.8874 34.2693 41.954 31.7773 42.7513 29.0729C43.3505 27.0484 43.7601 24.9474 43.483 22.883ZM38.8502 25.1276C37.2617 19.9236 32.294 20.1497 32.7946 19.6338C33.1787 19.3992 33.5909 19.2471 34.0082 19.1714C36.2019 18.7788 38.2909 20.4123 38.9292 23.1431C39.0729 23.7601 39.1553 24.4027 39.1901 25.0613C39.2131 25.5067 38.9794 25.5492 38.8502 25.1276Z" fill="#C40406"/>
<path d="M16.1262 56.5565C16.1797 56.5565 15.7556 56.2098 15.7905 56.2242C15.6069 56.0338 15.4284 55.8383 15.2601 55.6301C14.9745 55.1975 14.7493 54.7649 14.5683 54.3204C14.3286 53.7357 14.1654 53.1297 14.0405 52.4854C13.8773 51.6406 13.7796 50.7244 13.6614 49.685C13.5407 48.6166 13.3963 47.414 13.1311 46.0151C12.8345 44.447 12.384 42.6154 11.6335 40.4141C10.5397 37.204 9.76543 34.5973 9.22489 32.5406C8.90362 31.3184 8.66989 30.3104 8.50076 29.4851C8.28148 28.421 8.17354 27.6842 8.12085 27.2031C8.13445 24.4035 9.15264 21.8733 11.3063 21.0379C12.1409 20.7106 13.0563 20.6953 14.0116 20.8738C14.0566 20.8815 14.1008 20.8942 14.145 20.9036C14.2334 20.9087 14.3227 20.9155 14.4111 20.9214C14.0847 20.7523 13.7328 20.5747 13.3538 20.3902C13.3555 20.3902 13.3121 20.1658 13.2509 19.8556C13.1132 19.1545 12.888 18.0079 12.9025 18.0003C13.0401 17.945 12.6611 17.3645 12.905 16.6693C12.6135 16.5495 12.4146 16.5019 12.2914 16.507C11.4551 16.2452 10.5558 16.0956 9.67109 16.0421C8.83478 15.9911 8.00866 16.0251 7.25904 16.1432C7.08821 16.1704 6.92332 16.2121 6.75589 16.2469C5.60086 16.4874 4.50872 16.903 3.55002 17.5133C0.56003 19.4171 -0.425019 22.4691 0.161421 25.9163C0.429993 27.5057 1.01898 29.1188 1.79155 30.6402C2.64401 32.317 3.37494 33.931 4.02682 35.5229C5.55581 39.2549 6.63435 42.9384 7.78173 46.7315C8.49821 49.0985 9.32263 52.2041 11.0335 54.2099C12.339 55.7423 14.1578 56.7545 16.6157 56.9704C16.45 56.8361 16.2834 56.7027 16.1262 56.5565ZM2.79275 22.3382C3.91718 19.9389 6.07681 18.2977 8.5968 18.0598C9.14584 18.0071 9.71104 18.0198 10.2864 18.1082C10.5686 18.1516 10.7828 18.6539 10.708 18.9641C10.691 19.0372 10.6629 19.1026 10.6111 19.146C8.6104 20.8092 5.00847 20.7718 3.03922 23.206C2.60492 23.7414 2.38309 23.2094 2.79275 22.3382Z" fill="#C40406"/>
<path d="M30.7088 22.3662C30.0952 21.7059 29.4212 21.2614 28.7115 21.0004C28.6724 20.9834 28.635 20.9647 28.5951 20.9511C28.5398 20.9333 28.4829 20.9206 28.4268 20.9044C28.3843 20.9027 28.341 20.8985 28.2985 20.8951C28.1412 20.8891 27.9831 20.8772 27.8293 20.8806C27.7919 20.8815 27.7562 20.8815 27.7205 20.8832C27.7205 20.8832 27.7188 20.8832 27.7188 20.8866C25.192 20.9775 23.1149 22.3408 22.2284 23.3351C21.4805 24.1732 20.826 24.3992 20.3008 24.361C19.3676 24.3805 18.8016 23.5485 18.8016 23.5485C18.8016 23.5485 18.3443 23.1329 17.3278 22.4172C17.1128 22.266 16.8723 22.1011 16.6054 21.9251C16.432 21.8096 16.2484 21.6906 16.0521 21.5648C15.9365 21.5231 15.8158 21.4891 15.6951 21.4543C15.656 21.4415 15.6186 21.4279 15.5795 21.4169C14.7543 21.2044 13.9562 21.1781 13.2159 21.45C11.3079 22.1504 10.3237 24.5216 10.2056 27.1963C10.2328 27.6586 10.2982 28.3658 10.4495 29.3942C10.5659 30.1888 10.7308 31.1637 10.9628 32.3468C11.3555 34.3372 11.9317 36.8615 12.7621 39.979C13.3324 42.1182 13.6545 43.8886 13.8534 45.3997C14.0302 46.7477 14.1101 47.9052 14.1755 48.9311C14.2384 49.928 14.2885 50.8077 14.399 51.6236C14.484 52.2449 14.6022 52.8322 14.7883 53.4025C14.9294 53.8351 15.1087 54.2592 15.3416 54.685C15.4801 54.8924 15.6288 55.087 15.781 55.2765C15.7852 55.2825 15.7886 55.2893 15.7937 55.2944C15.8065 55.2969 15.8218 55.3012 15.8354 55.3054C15.8626 55.3131 16.1073 55.6105 16.0606 55.6097C16.1923 55.7567 16.3326 55.8918 16.4728 56.0261C17.8616 57.3681 19.6693 58.1365 21.5901 58.0523C23.5458 57.9699 25.3306 57.0214 26.6352 55.534L26.7329 55.3878L26.9293 55.0921L27.1834 54.7079L27.3134 54.5124C27.7673 53.6447 28.1251 52.8092 28.4302 51.9347C28.5381 51.627 28.6393 51.3134 28.7362 50.9913C28.7464 50.9267 28.7574 50.8629 28.7668 50.7966C28.7676 50.8272 28.7668 50.8604 28.7659 50.8944C28.8586 50.5833 28.9461 50.2629 29.0328 49.9331C29.1101 49.6365 29.1866 49.3331 29.2623 49.0161C29.3175 48.7866 29.3719 48.5478 29.4271 48.3038C29.9133 46.1629 30.4326 43.4525 31.3437 39.503C31.6225 38.2927 31.8604 37.1811 32.0695 36.151C32.2437 35.2917 32.3967 34.4987 32.5336 33.761C32.65 33.1346 32.7562 32.5456 32.8523 32.0034C32.9322 31.5512 32.9934 31.1288 33.0376 30.737C33.1396 29.8514 33.1616 29.1358 33.154 28.6097C32.8812 25.9571 32.0134 23.7686 30.7088 22.3662ZM27.248 26.8572C25.9935 26.6982 24.9821 27.0153 23.8568 27.5524C22.8038 28.0564 21.9207 28.5995 20.5728 28.7168C19.6855 28.795 18.7999 28.6828 17.9415 28.4312C17.6474 28.3437 17.361 28.24 17.0754 28.1244C15.3951 27.4309 13.312 26.1399 12.785 29.1485C12.4672 27.0289 13.5772 25.0112 15.5906 25.5016C16.1354 25.6342 16.6691 25.839 17.123 26.0277C17.406 26.1441 17.6941 26.2461 17.9873 26.3328C18.8466 26.5852 19.7314 26.6982 20.6195 26.6184C21.6139 26.5317 22.446 26.2197 23.3299 25.7429C24.9243 24.8803 26.7363 24.6976 28.2866 25.7752C29.2283 26.428 29.9677 27.5312 30.3824 28.7406C29.6005 27.6221 28.4599 27.0119 27.248 26.8572Z" fill="#E41428"/>
<path d="M29.9406 19.3618C29.9006 19.3269 29.8624 19.2878 29.8199 19.2538C29.7468 19.1969 29.6728 19.1383 29.5955 19.0873C29.5403 19.049 29.4927 19.0082 29.4408 18.9674C29.0609 18.6802 28.7592 18.3504 28.5935 17.9016C28.4575 17.5387 28.1982 17.3568 27.8455 17.2991C27.7486 17.2838 27.6467 17.2736 27.5319 17.2753C27.0619 17.2897 26.5928 17.2897 26.1211 17.2846C25.9307 17.2812 25.7378 17.2812 25.5474 17.2744C25.0043 17.2566 24.3328 17.5022 23.9538 17.1758C23.8093 17.0492 23.7515 16.8843 23.7362 16.7041C23.7107 16.4168 23.7872 16.0845 23.7889 15.7811C23.7889 15.7318 23.7906 15.6893 23.7872 15.6426C23.7643 15.3902 23.8076 15.1292 23.7328 14.8862C23.709 14.8097 23.675 14.734 23.6215 14.6609C23.4608 13.811 23.5016 12.9586 23.6147 12.1069C23.7048 12.0347 23.7413 11.9429 23.7498 11.8367C23.7575 11.7432 23.7558 11.6429 23.7532 11.5443C23.7532 11.4976 23.7532 11.4534 23.7498 11.4075C23.7481 11.2919 23.7813 11.1788 23.7218 11.0718C24.1943 7.94918 25.1573 5.00169 27.2642 2.4698C27.5098 2.17743 27.7435 1.87826 27.9713 1.57314C28.0665 1.44906 28.2101 1.30967 28.0759 1.14734C27.9356 0.977355 27.7503 1.07425 27.6144 1.14989C26.9854 1.4958 26.3548 1.84002 25.7556 2.22758C25.3247 2.50295 24.9422 2.84716 24.5368 3.15993C24.4467 3.33756 24.2088 3.37666 24.117 3.55344C24.0889 3.61633 24.0566 3.68007 24.0328 3.75827C24.0371 3.66223 24.0889 3.59593 24.1195 3.52114C24.2283 3.4149 24.2657 3.28147 24.2912 3.14208C24.8079 2.15788 25.6528 1.42356 26.4534 0.656939C26.5571 0.55325 26.6693 0.45806 26.7593 0.347571C26.8299 0.26003 26.8554 0.151242 26.7738 0.0560515C26.6982 -0.0314894 26.5902 0.00165713 26.512 0.0339538C26.2409 0.148692 25.9868 0.303376 25.708 0.396016C22.6041 1.43206 21.0598 3.72087 20.1003 6.48988C20.1334 6.48563 20.1598 6.48648 20.187 6.48903C20.4428 6.49668 20.4385 6.67006 20.4147 6.88849C20.3043 7.95173 20.1003 8.99797 19.8258 10.0298C19.4637 11.3888 19.2478 12.7512 19.1552 14.1178C19.1407 14.3499 19.1229 14.581 19.1161 14.8105C19.1161 14.8224 19.1144 14.8326 19.1144 14.8428C19.1093 14.9694 19.111 15.0918 19.1093 15.2159C19.0965 16.0964 19.1399 16.9752 19.2317 17.8574C19.3022 18.5153 19.3915 19.174 19.5206 19.836C19.6371 20.4446 19.711 21.0642 19.7161 21.6863C19.7187 21.8503 19.7663 22.0518 19.4713 22.0764C19.1212 22.1113 18.8424 22.0637 18.6291 21.9336C18.5186 21.869 18.4294 21.7772 18.352 21.665C18.2611 21.5274 18.1905 21.3591 18.1489 21.1492C17.9152 19.9797 17.684 18.8136 17.7554 17.6144C17.7996 16.8902 17.746 16.1644 17.8523 15.4386C17.8684 15.3307 17.8718 15.2431 17.8659 15.1683C17.865 15.1437 17.8608 15.1207 17.854 15.1003C17.8106 14.91 17.6534 14.8641 17.3296 14.8921C17.3126 14.893 17.2956 14.8896 17.2786 14.8921C17.0032 14.8998 16.7559 14.8105 16.4966 14.7612C16.2485 14.7247 16.0012 14.7238 15.7555 14.7714C15.7266 14.7774 15.7028 14.7952 15.6731 14.802C13.816 15.2601 13.1106 15.9349 12.865 16.5477C12.565 17.2948 12.9508 17.9475 12.7978 18.0028C12.7817 18.0079 12.9729 19.2708 13.0893 20.0451C13.1412 20.3859 13.1777 20.6341 13.1752 20.6316C13.5806 20.8542 13.9554 21.0684 14.3056 21.2707C14.3591 21.3004 14.4101 21.3319 14.4637 21.3616C14.7084 21.5053 14.9396 21.6438 15.1563 21.7738C15.4904 21.9753 15.7921 22.1639 16.0615 22.3373C17.3364 23.1541 17.9084 23.63 17.9084 23.63C17.9084 23.63 18.618 24.5819 19.7884 24.559C20.4462 24.6015 21.2655 24.344 22.2038 23.3853C23.3138 22.2498 25.9179 20.6919 29.0839 20.5874C29.0839 20.5848 29.0839 20.5831 29.0864 20.5831C29.1306 20.5823 29.1765 20.5823 29.2232 20.5806C29.4162 20.5755 29.6134 20.5891 29.8097 20.5976C29.8641 20.5993 29.9176 20.6035 29.9712 20.6069C30.0307 20.6103 30.0893 20.6129 30.1496 20.6188C30.153 20.6171 30.1539 20.6137 30.1564 20.6095C30.1564 20.6086 30.1573 20.6069 30.1581 20.6061C30.2533 20.4463 30.3213 20.2754 30.363 20.097C30.3179 19.7901 30.1505 19.559 29.9406 19.3618Z" fill="#52AE33"/>
<path d="M56.4867 39.9959V27.5668H53.1074V24.2351H63.6693V27.5668H60.3138V39.9959H56.4867V39.9959Z" fill="#30302F"/>
<path d="M65.2603 39.9959V24.2351H74.7589V27.5668H69.0883V30.3316H74.594V33.6632H69.0883V36.6642H74.7589V39.9959H65.2603V39.9959Z" fill="#30302F"/>
<path d="M85.3983 39.9959L82.7992 34.8683L80.224 39.9959H75.8521L80.4127 31.9387L76.1121 24.236H80.4832L82.7992 29.0567L85.0914 24.236H89.4863L85.2096 31.9158L89.7702 39.9967H85.3983V39.9959Z" fill="#30302F"/>
<path d="M99.4716 39.9959V33.5689H94.8881V39.9959H91.0601V24.2351H94.8881V30.2134H99.4716V24.2351H103.3V39.9959H99.4716Z" fill="#30302F"/>
<path d="M105.878 39.9959V24.2351H109.706V32.5524L114.219 24.2351H118.094V39.9959H114.267V31.2767L109.518 39.9959H105.878Z" fill="#30302F"/>
<path d="M128.636 39.9959L125.493 34.231L124.501 35.884V39.9959H120.673V24.2351H124.501V30.8993L128.399 24.2351H132.842L127.903 31.6081L133.149 39.9959H128.636Z" fill="#30302F"/>
<path d="M143.555 39.9959L142.964 37.5856H138.498L137.908 39.9959H133.772L138.427 24.2351H143.035L147.691 39.9959H143.555ZM140.743 28.2051L139.255 34.2539H142.209L140.743 28.2051Z" fill="#30302F"/>
<path d="M153.271 37.7751L155.468 35.3171C156.341 36.3098 157.736 36.9005 158.964 36.9005C160.547 36.9005 161.256 36.1679 161.256 35.2466C161.256 34.1596 160.406 33.71 158.798 33.71H156.27V30.3554H158.68C160.098 30.3554 161.019 29.882 161.019 28.9139C161.019 27.8745 160.098 27.3781 158.774 27.3781C157.64 27.3781 156.388 27.8745 155.585 28.7958L153.481 26.575C154.709 24.944 156.742 23.9997 159.152 23.9997C162.555 23.9997 164.871 25.5355 164.871 28.3003C164.871 30.0494 163.524 31.5376 161.729 31.8682C163.5 32.1036 165.107 33.5459 165.107 35.6248C165.107 38.3896 162.626 40.2806 159.153 40.2806C156.508 40.2798 154.357 39.1927 153.271 37.7751Z" fill="#30302F"/>
<path d="M166.339 36.9005C167.545 36.711 168.276 36.2622 168.631 32.4342L169.41 24.2351H179.405V36.6642H180.659V42.9026H176.831V39.9959H170.167V42.9026H166.339V36.9005ZM170.947 36.6642H175.577V27.5668H172.885L172.459 32.2931C172.294 34.3253 171.726 35.7191 170.947 36.6642Z" fill="#30302F"/>
<path d="M181.492 32.1274C181.492 27.3781 184.115 23.9751 188.368 23.9751C192.622 23.9751 195.245 27.3781 195.245 32.1274C195.245 36.8767 192.622 40.2798 188.368 40.2798C184.115 40.2798 181.492 36.8767 181.492 32.1274ZM191.369 32.1274C191.369 29.3865 190.306 27.3543 188.368 27.3543C186.454 27.3543 185.391 29.3873 185.391 32.1274C185.391 34.8446 186.454 36.9005 188.368 36.9005C190.306 36.9005 191.369 34.8454 191.369 32.1274Z" fill="#30302F"/>
<path d="M197.109 39.9959V24.2351H203.442C206.868 24.2351 208.569 26.6455 208.569 29.4332C208.569 32.198 206.868 34.5854 203.442 34.5854H200.937V39.9959H197.109ZM204.694 29.4103C204.694 28.2527 203.985 27.5668 202.969 27.5668H200.937V31.2537H202.969C203.985 31.2537 204.694 30.5678 204.694 29.4103Z" fill="#30302F"/>
<path d="M209.753 32.1274C209.753 27.3781 212.376 23.9751 216.629 23.9751C220.882 23.9751 223.505 27.3781 223.505 32.1274C223.505 36.8767 220.882 40.2798 216.629 40.2798C212.376 40.2798 209.753 36.8767 209.753 32.1274ZM219.63 32.1274C219.63 29.3865 218.566 27.3543 216.629 27.3543C214.715 27.3543 213.652 29.3873 213.652 32.1274C213.652 34.8446 214.715 36.9005 216.629 36.9005C218.566 36.9005 219.63 34.8454 219.63 32.1274Z" fill="#30302F"/>
<path d="M225.37 39.9959V24.2351H232.553C235.53 24.2351 236.853 26.2205 236.853 28.2527C236.853 30.2143 235.742 31.5138 234.254 31.8682C235.884 32.1283 237.112 33.7584 237.112 35.7191C237.112 38.0352 235.766 39.9959 232.788 39.9959H225.37ZM232.955 28.9377C232.955 28.0869 232.481 27.5192 231.608 27.5192H229.198V30.3554H231.608C232.481 30.3554 232.955 29.8123 232.955 28.9377ZM233.214 35.1752C233.214 34.2777 232.67 33.6394 231.726 33.6394H229.197V36.711H231.726C232.671 36.7118 233.214 36.1679 233.214 35.1752Z" fill="#30302F"/>
<path d="M242.948 24.2351V29.6465H245.453C248.879 29.6465 250.579 32.0331 250.579 34.7978C250.579 37.5856 248.879 39.9959 245.453 39.9959H239.12V24.2351H242.948ZM242.948 32.9782V36.6642H244.98C245.996 36.6642 246.705 35.9784 246.705 34.8208C246.705 33.6632 245.996 32.9782 244.98 32.9782H242.948Z" fill="#30302F"/>
<path d="M251.312 39.9959L253.958 33.8995C252.8 33.3802 251.406 32.0331 251.406 29.3627C251.406 26.456 253.391 24.2351 256.462 24.2351H262.866V39.9959H259.062V34.5854H257.643L255.54 39.9959H251.312ZM259.063 31.2537V27.5668H257.055C256.039 27.5668 255.306 28.2527 255.306 29.4103C255.306 30.5678 256.038 31.2537 257.055 31.2537H259.063V31.2537Z" fill="#30302F"/>
<path d="M55.9226 56.2471C56.4002 56.2471 56.7955 55.9004 57.0224 55.3496L57.3216 54.6569L54.7871 48.6778H56.09L57.6088 52.6359C57.7287 52.935 57.8366 53.3651 57.8366 53.3651H57.8604C57.8604 53.3651 57.9564 52.958 58.0635 52.6469L59.5339 48.677H60.7892L57.9437 55.8154C57.585 56.7596 56.8312 57.2381 55.9829 57.2381C55.3132 57.2381 54.8228 56.8676 54.8228 56.8676L55.2299 55.9828C55.2291 55.9845 55.5639 56.2471 55.9226 56.2471Z" fill="#52AE33"/>
<path d="M62.3113 48.6778H63.6023L65.1448 52.0979C65.3123 52.4565 65.4797 52.9104 65.4797 52.9104H65.5035C65.5035 52.9104 65.6828 52.4676 65.8384 52.0979L67.4166 48.6778H68.6839L69.2099 54.7283H68.0864L67.8229 51.1298C67.811 50.7711 67.8348 50.0887 67.8348 50.0887H67.811C67.811 50.0887 67.6555 50.5077 67.4285 50.9734L65.9939 53.9991H65.0012L63.5666 50.9862C63.3753 50.5434 63.1841 50.0887 63.1841 50.0887H63.1603C63.1603 50.0887 63.196 50.7711 63.1722 51.1298L62.9087 54.7283H61.7852L62.3113 48.6778Z" fill="#52AE33"/>
<path d="M71.0737 48.6778H72.2339V51.1408H75.2952V48.6778H76.4554V54.7283H75.2952V52.1335H72.2339V54.7283H71.0737V48.6778Z" fill="#52AE33"/>
<path d="M81.6757 50.9615H81.9868V50.8417C81.9868 49.849 81.4131 49.5141 80.6592 49.5141C80.0618 49.5141 79.4515 49.7529 78.9611 50.0997L78.4945 49.2507C78.9849 48.8435 79.9054 48.5333 80.7544 48.5333C82.2732 48.5333 83.1452 49.3696 83.1452 50.9003V54.7266H82.0574V54.1164C82.0574 53.8419 82.093 53.6387 82.093 53.6387H82.0693C81.7225 54.3323 80.9814 54.8703 80.0847 54.8703C79.0325 54.8703 78.0645 54.2133 78.0645 53.077C78.0653 51.1765 80.4204 50.9615 81.6757 50.9615ZM80.3609 53.9515C81.3774 53.9515 81.9868 52.9231 81.9868 52.0256V51.7978H81.6876C80.8267 51.7978 79.2246 51.8701 79.2246 52.9826C79.2246 53.4611 79.6079 53.9515 80.3609 53.9515Z" fill="#52AE33"/>
<path d="M85.9594 52.72C86.0911 52.5041 86.2339 52.3486 86.2339 52.3486V52.3375C85.5404 52.1454 84.9191 51.5004 84.9191 50.5799C84.9191 49.3365 85.8039 48.6786 87.083 48.6786H89.4984V54.7292H88.3383V52.5415H87.3218L85.8387 54.7292H84.5596L85.9594 52.72ZM88.3383 51.6916V49.4793H87.3694C86.5926 49.4793 86.0903 49.7895 86.0903 50.5672C86.0903 51.3202 86.6283 51.6907 87.3337 51.6907H88.3383V51.6916Z" fill="#52AE33"/>
<path d="M96.223 49.6705H94.1187V48.6778H99.4875V49.6705H97.3712V54.7283H96.223V49.6705V49.6705Z" fill="#52AE33"/>
<path d="M103.45 48.535C105.16 48.535 106.068 49.8142 106.068 51.3686C106.068 51.5242 106.045 51.6916 106.021 51.8582H101.621C101.68 53.162 102.614 53.8674 103.701 53.8674C104.346 53.8674 105.004 53.592 105.483 53.162L105.973 54.011C105.388 54.549 104.467 54.872 103.63 54.872C101.729 54.872 100.413 53.4968 100.413 51.7027C100.413 49.7785 101.728 48.535 103.45 48.535ZM104.896 51.0219C104.861 49.9816 104.215 49.4317 103.426 49.4317C102.529 49.4317 101.824 50.0173 101.657 51.0219H104.896Z" fill="#52AE33"/>
<path d="M109.092 51.6193L107.144 48.6778H108.471L109.595 50.5196C109.679 50.6751 109.787 50.8782 109.787 50.8782H109.811C109.811 50.8782 109.93 50.6751 110.014 50.5196L111.137 48.6778H112.465L110.516 51.6193L112.585 54.7283H111.269L110.002 52.7072C109.907 52.5636 109.811 52.3843 109.811 52.3843H109.787C109.787 52.3843 109.703 52.5636 109.607 52.7072L108.34 54.7283H107.025L109.092 51.6193Z" fill="#52AE33"/>
<path d="M113.941 48.6778H115.101V51.1408H118.162V48.6778H119.323V54.7283H118.162V52.1335H115.101V54.7283H113.941V48.6778Z" fill="#52AE33"/>
<path d="M121.399 48.6778H122.511V52.2891C122.511 52.612 122.488 53.043 122.476 53.1024H122.5C122.547 52.9945 122.834 52.5764 123.038 52.2891L125.644 48.6778H126.769V54.7283H125.644V51.1171C125.644 50.8306 125.68 50.4116 125.68 50.3164H125.656C125.62 50.4244 125.321 50.8306 125.13 51.1171L122.511 54.7283H121.399V48.6778V48.6778Z" fill="#52AE33"/>
<path d="M128.839 48.6778H129.999V51.1171H130.848L132.499 48.6778H133.813L131.793 51.5599V51.5837L134.053 54.7283H132.678L130.872 52.1097H129.999V54.7283H128.839V48.6778Z" fill="#52AE33"/>
<path d="M138.432 50.9615H138.742V50.8417C138.742 49.849 138.168 49.5141 137.415 49.5141C136.817 49.5141 136.207 49.7529 135.717 50.0997L135.25 49.2507C135.74 48.8435 136.661 48.5333 137.51 48.5333C139.029 48.5333 139.902 49.3696 139.902 50.9003V54.7266H138.813V54.1164C138.813 53.8419 138.849 53.6387 138.849 53.6387H138.826C138.479 54.3323 137.738 54.8703 136.841 54.8703C135.789 54.8703 134.821 54.2133 134.821 53.077C134.821 51.1765 137.176 50.9615 138.432 50.9615ZM137.116 53.9515C138.133 53.9515 138.742 52.9231 138.742 52.0256V51.7978H138.443C137.582 51.7978 135.98 51.8701 135.98 52.9826C135.981 53.4611 136.363 53.9515 137.116 53.9515Z" fill="#52AE33"/>
<path d="M145.071 53.7722C145.92 52.6121 146.016 50.7227 146.016 49.7895V48.677H150.105V53.7713H150.966V56.1621H149.902V54.7275H145.419V56.1621H144.331V53.7713H145.071V53.7722ZM148.946 53.7722V49.6229H147.128V49.9459C147.128 50.8536 147.032 52.5764 146.266 53.7722H148.946V53.7722Z" fill="#52AE33"/>
<path d="M152.062 53.7484C152.947 53.6166 153.425 52.7319 153.425 50.5434V48.6778H157.479V54.7283H156.319V49.6348H154.538V50.5434C154.538 53.2818 153.844 54.6926 152.063 54.7878V53.7484H152.062Z" fill="#52AE33"/>
<path d="M160.36 52.72C160.491 52.5041 160.635 52.3486 160.635 52.3486V52.3375C159.942 52.1454 159.319 51.5004 159.319 50.5799C159.319 49.3365 160.204 48.6786 161.484 48.6786H163.899V54.7292H162.739V52.5415H161.724L160.241 54.7292H158.961L160.36 52.72ZM162.739 51.6916V49.4793H161.771C160.994 49.4793 160.491 49.7895 160.491 50.5672C160.491 51.3202 161.029 51.6907 161.735 51.6907H162.739V51.6916Z" fill="#52AE33"/>
<path d="M169.116 53.2224C169.391 53.5096 169.965 53.9397 170.694 53.9397C171.388 53.9397 171.95 53.6048 171.95 52.947C171.95 52.3622 171.555 52.0265 170.706 52.0265H169.965V51.1902H170.598C171.281 51.1902 171.747 50.9267 171.747 50.3174C171.747 49.7556 171.34 49.4445 170.671 49.4445C170.145 49.4445 169.666 49.6247 169.2 49.9706L168.769 49.1938C169.236 48.847 169.918 48.5368 170.875 48.5368C172.023 48.5368 172.919 49.0986 172.919 50.1746C172.919 50.9284 172.512 51.3466 172.035 51.5497V51.5735C172.644 51.7648 173.122 52.2195 173.122 52.9963C173.122 54.2397 172.046 54.8737 170.802 54.8737C169.869 54.8737 169.08 54.4666 168.578 53.989L169.116 53.2224Z" fill="#52AE33"/>
<path d="M174.952 53.7722C175.802 52.6121 175.896 50.7227 175.896 49.7895V48.677H179.986V53.7713H180.847V56.1621H179.782V54.7275H175.298V56.1621H174.211V53.7713H174.952V53.7722ZM178.826 53.7722V49.6229H177.008V49.9459C177.008 50.8536 176.912 52.5764 176.147 53.7722H178.826V53.7722Z" fill="#52AE33"/>
<path d="M185.122 48.535C186.928 48.535 188.386 49.8626 188.386 51.6916C188.386 53.5325 186.928 54.872 185.134 54.872C183.329 54.872 181.87 53.5325 181.87 51.6916C181.87 49.8617 183.329 48.535 185.122 48.535ZM185.134 53.8674C186.27 53.8674 187.214 52.9588 187.214 51.6908C187.214 50.4346 186.27 49.5388 185.134 49.5388C183.986 49.5388 183.054 50.4354 183.054 51.6908C183.054 52.9588 183.987 53.8674 185.134 53.8674Z" fill="#52AE33"/>
<path d="M190.057 48.6778H191.133V49.2167C191.133 49.4674 191.097 49.6705 191.097 49.6705H191.121C191.503 48.9413 192.269 48.535 193.153 48.535C194.792 48.535 195.808 49.826 195.808 51.7035C195.808 53.6294 194.66 54.8728 193.07 54.8728C192.305 54.8728 191.611 54.4904 191.193 53.8444H191.169C191.169 53.8444 191.217 54.0595 191.217 54.3705V57.12H190.058V48.6778H190.057ZM192.891 53.8674C193.847 53.8674 194.636 53.0897 194.636 51.7154C194.636 50.3997 193.931 49.5507 192.926 49.5507C192.018 49.5507 191.181 50.1966 191.181 51.7273C191.181 52.8033 191.779 53.8674 192.891 53.8674Z" fill="#52AE33"/>
<path d="M200.387 48.535C202.193 48.535 203.652 49.8626 203.652 51.6916C203.652 53.5325 202.193 54.872 200.399 54.872C198.594 54.872 197.135 53.5325 197.135 51.6916C197.135 49.8617 198.594 48.535 200.387 48.535ZM200.399 53.8674C201.535 53.8674 202.48 52.9588 202.48 51.6908C202.48 50.4346 201.535 49.5388 200.399 49.5388C199.252 49.5388 198.319 50.4354 198.319 51.6908C198.319 52.9588 199.252 53.8674 200.399 53.8674Z" fill="#52AE33"/>
<path d="M205.344 48.6778H207.843C209.063 48.6778 209.864 49.2166 209.864 50.2323C209.864 50.8179 209.553 51.3202 209.003 51.5599V51.5726C209.756 51.7519 210.151 52.3375 210.151 53.0073C210.151 54.1308 209.242 54.7283 207.927 54.7283H205.344V48.6778V48.6778ZM207.64 51.2369C208.334 51.2369 208.681 50.8782 208.681 50.3164C208.681 49.7665 208.335 49.4801 207.605 49.4801H206.505V51.2369H207.64ZM207.748 53.915C208.584 53.915 208.98 53.5325 208.98 52.9707C208.98 52.3732 208.537 52.0146 207.736 52.0146H206.505V53.915H207.748Z" fill="#52AE33"/>
<path d="M214.687 48.535C216.493 48.535 217.952 49.8626 217.952 51.6916C217.952 53.5325 216.493 54.872 214.7 54.872C212.894 54.872 211.435 53.5325 211.435 51.6916C211.434 49.8617 212.894 48.535 214.687 48.535ZM214.699 53.8674C215.835 53.8674 216.779 52.9588 216.779 51.6908C216.779 50.4346 215.835 49.5388 214.699 49.5388C213.551 49.5388 212.618 50.4354 212.618 51.6908C212.618 52.9588 213.551 53.8674 214.699 53.8674Z" fill="#52AE33"/>
<path d="M219.618 48.6778H220.73V52.2891C220.73 52.6121 220.706 53.043 220.694 53.1025H220.718C220.766 52.9945 221.053 52.5764 221.256 52.2891L223.863 48.6778H224.986V54.7283H223.863V51.1171C223.863 50.8307 223.898 50.4117 223.898 50.3165H223.875C223.839 50.4244 223.539 50.8307 223.348 51.1171L220.73 54.7283H219.618V48.6778V48.6778ZM220.515 46.4545V46.2751H221.448V46.4417C221.448 46.9678 221.866 47.2313 222.284 47.2313C222.702 47.2313 223.133 46.9678 223.133 46.4307V46.2751H224.054V46.4545C224.054 47.4344 223.218 47.9852 222.284 47.9852C221.364 47.9843 220.515 47.4344 220.515 46.4545Z" fill="#52AE33"/>
<path d="M230.24 48.6778H231.4V51.1171H232.249L233.898 48.6778H235.213L233.193 51.5599V51.5837L235.452 54.7283H234.078L232.272 52.1097H231.4V54.7283H230.24V48.6778Z" fill="#52AE33"/>
<path d="M237.421 56.2471C237.899 56.2471 238.293 55.9004 238.521 55.3496L238.82 54.6569L236.286 48.6778H237.589L239.107 52.6359C239.227 52.935 239.335 53.3651 239.335 53.3651H239.358C239.358 53.3651 239.454 52.958 239.562 52.6469L241.032 48.677H242.288L239.442 55.8154C239.084 56.7596 238.33 57.2381 237.481 57.2381C236.811 57.2381 236.321 56.8676 236.321 56.8676L236.728 55.9828C236.728 55.9845 237.062 56.2471 237.421 56.2471Z" fill="#52AE33"/>
<path d="M245.325 51.6193L243.376 48.6778H244.703L245.827 50.5196C245.911 50.6751 246.019 50.8782 246.019 50.8782H246.042C246.042 50.8782 246.162 50.6751 246.246 50.5196L247.37 48.6778H248.697L246.747 51.6193L248.817 54.7283H247.501L246.234 52.7072C246.139 52.5636 246.042 52.3843 246.042 52.3843H246.019C246.019 52.3843 245.935 52.5636 245.84 52.7072L244.572 54.7283H243.257L245.325 51.6193Z" fill="#52AE33"/>
<path d="M250.172 48.6778H251.332V51.1408H254.394V48.6778H255.554V54.7283H254.394V52.1335H251.332V54.7283H250.172V48.6778Z" fill="#52AE33"/>
<path d="M257.631 48.6778H258.744V52.2891C258.744 52.612 258.72 53.043 258.708 53.1024H258.731C258.78 52.9945 259.067 52.5764 259.269 52.2891L261.876 48.6778H263V54.7283H261.876V51.1171C261.876 50.8306 261.911 50.4116 261.911 50.3164H261.888C261.852 50.4244 261.553 50.8306 261.362 51.1171L258.744 54.7283H257.631V48.6778V48.6778Z" fill="#52AE33"/>
</svg>
