<svg width="36" height="43" viewBox="0 0 36 43" fill="none" xmlns="http://www.w3.org/2000/svg">
<circle cx="9.5" cy="33.3583" r="9.5" fill="#84B53F"/>
<path d="M34.2011 39.2644H8.59841C7.71702 39.2644 7 38.5473 7 37.6659C7 37.6403 7.00116 37.6144 7.00346 37.5888L9.30365 11.8672C9.32783 11.0068 10.0354 10.3143 10.9012 10.3143H12.3186C12.7955 10.3143 13.1821 10.7009 13.1821 11.1778C13.1821 11.6548 12.7955 12.0414 12.3186 12.0414H11.0221L8.74234 37.537H34.0577L31.778 12.0414H30.7408C30.2639 12.0414 29.8773 11.6548 29.8773 11.1778C29.8773 10.7009 30.2639 10.3143 30.7408 10.3143H31.8983C32.7644 10.3143 33.4717 11.0065 33.4961 11.8672L35.796 37.5888C35.7983 37.6144 35.7995 37.6403 35.7995 37.6659C35.7995 38.5473 35.0825 39.2644 34.2011 39.2644Z" fill="#84B53F"/>
<path d="M25.8473 12.0417H17.3557C16.8788 12.0417 16.4922 11.6551 16.4922 11.1781C16.4922 10.7012 16.8788 10.3146 17.3557 10.3146H25.8473C26.3242 10.3146 26.7108 10.7012 26.7108 11.1781C26.7108 11.6551 26.3242 12.0417 25.8473 12.0417Z" fill="#84B53F"/>
<path d="M28.5962 17.1751C28.1192 17.1751 27.7326 16.7885 27.7326 16.3116C27.7326 7.58746 24.4581 1.72715 21.4 1.72715C18.3417 1.72715 15.0674 7.58746 15.0674 16.3116C15.0674 16.7885 14.6808 17.1751 14.2039 17.1751C13.7269 17.1751 13.3403 16.7885 13.3403 16.3116C13.3403 7.1649 16.8806 6.10352e-05 21.4 6.10352e-05C25.9195 6.10352e-05 29.4597 7.1649 29.4597 16.3116C29.4597 16.7885 29.0731 17.1751 28.5962 17.1751Z" fill="#84B53F"/>
<path d="M33.7631 33.7264H9.00808C8.53111 33.7264 8.14453 33.3398 8.14453 32.8629C8.14453 32.3859 8.53111 31.9993 9.00808 31.9993H33.7631C34.2401 31.9993 34.6266 32.3859 34.6266 32.8629C34.6266 33.3398 34.2401 33.7264 33.7631 33.7264Z" fill="#84B53F"/>
</svg>
