<svg width="21" height="12" viewBox="0 0 21 12" fill="none" xmlns="http://www.w3.org/2000/svg">
<path d="M-0.000488281 1.10204C-0.000488281 1.00526 -0.000488281 0.908565 -0.000488281 0.811779C0.146722 0.582467 0.373632 0.524101 0.625569 0.521515C1.57117 0.512003 2.51686 0.492054 3.46236 0.499719C3.835 0.502767 4.13145 0.677036 4.27709 1.04922C4.33962 1.20899 4.40417 1.36885 4.48073 1.52225C4.88533 2.33375 5.28364 3.14858 5.70505 3.9514C5.95939 4.43589 6.24078 4.91114 6.65341 5.28267C6.80487 5.41908 6.9893 5.53128 7.17696 5.61154C7.35982 5.68967 7.53215 5.58993 7.63355 5.42591C7.81539 5.13149 7.84596 4.79994 7.88946 4.46978C7.99945 3.63371 8.00906 2.79764 7.86656 1.96536C7.81078 1.63963 7.76829 1.28573 7.45503 1.08838C7.26867 0.971088 7.05062 0.899792 6.84015 0.826833C6.69008 0.774839 6.64917 0.71915 6.7659 0.614052C6.93841 0.458807 7.12016 0.285831 7.33036 0.207608C7.60197 0.106481 7.90377 0.0673238 8.19589 0.0447897C8.64527 0.0100651 9.09817 -0.00905142 9.54848 0.00406268C10.0621 0.0190238 10.5768 0.0584579 11.0868 0.121812C11.4347 0.165033 11.7025 0.352232 11.7634 0.732264C11.8006 0.963977 11.8437 1.1992 11.8406 1.43221C11.8271 2.4153 11.7866 3.39803 11.7802 4.38103C11.7783 4.66095 11.8223 4.95269 11.9082 5.21876C12.0313 5.60055 12.394 5.73511 12.6939 5.42323C12.8388 5.2727 13.0106 5.14525 13.1407 4.98354C13.8374 4.11829 14.3949 3.16521 14.8712 2.16447C15.0579 1.77234 15.221 1.36885 15.3917 0.969334C15.5233 0.661522 15.704 0.529179 15.998 0.529549C16.4762 0.530195 16.9543 0.532505 17.4325 0.527425C18.0931 0.520499 18.7539 0.49464 19.4142 0.502583C19.7166 0.506184 20.0372 0.532505 20.1893 0.876149C20.1893 0.972935 20.1893 1.06972 20.1893 1.16651C20.1042 1.38511 20.0334 1.61072 19.9313 1.82119C19.555 2.59742 19.0428 3.28656 18.5303 3.97532C18.0566 4.612 17.5788 5.24582 17.1183 5.89201C16.7778 6.36994 16.8177 6.75136 17.2335 7.17323C17.8357 7.78432 18.4626 8.37196 19.0471 8.99941C19.5382 9.52656 20.0418 10.0596 20.1893 10.8098C20.1893 10.8313 20.1893 10.8528 20.1893 10.8743C20.056 11.2603 19.8708 11.4071 19.4639 11.4239C19.0132 11.4425 18.562 11.4494 18.1111 11.4604C17.5475 11.4742 16.9834 11.508 16.4204 11.4945C15.8124 11.4799 15.3017 11.1971 14.8787 10.7797C14.4859 10.392 14.1264 9.97059 13.7528 9.56368C13.5021 9.2906 13.2523 9.01566 12.9083 8.85488C12.7245 8.7689 12.555 8.77628 12.3845 8.91407C12.124 9.12464 11.973 9.39967 11.9128 9.71477C11.8528 10.0293 11.8236 10.3517 11.8068 10.6721C11.7786 11.2052 11.547 11.427 11.021 11.4408C10.6237 11.4511 10.2258 11.4358 9.82831 11.445C8.72747 11.4705 7.72055 11.1626 6.78234 10.6031C6.08 10.1842 5.38985 9.73962 4.85079 9.11901C4.33103 8.52065 3.8302 7.90013 3.37924 7.24895C2.84267 6.47402 2.33972 5.67231 1.87491 4.85221C1.38886 3.99463 0.960901 3.10379 0.516962 2.22275C0.331703 1.85574 0.171195 1.47607 -0.000488281 1.10204Z" fill="#C7C7C7"/>
</svg>
