<svg width="15" height="15" viewBox="0 0 15 15" fill="none" xmlns="http://www.w3.org/2000/svg">
<path fill-rule="evenodd" clip-rule="evenodd" d="M7.26652 0.00138939C8.69218 0.00138939 10.1167 3.35415e-05 11.5424 0.00138939C12.9773 0.00274524 14.1184 0.910486 14.4314 2.30791C14.475 2.50045 14.4902 2.70201 14.4911 2.89974C14.4958 5.79855 14.4967 8.69555 14.4933 11.5941C14.4902 13.2089 13.2112 14.4891 11.595 14.4916C8.69805 14.4961 5.79974 14.4961 2.90029 14.4916C1.28618 14.4889 0.00536683 13.2089 0.00423697 11.5941C-0.00141232 8.69577 -0.00141232 5.79877 0.00423697 2.89974C0.0055928 1.28493 1.2864 0.00658682 2.90029 0.00184135C4.35668 -0.0022262 5.81104 0.00138939 7.26652 0.00138939ZM2.88606 6.16802C2.48044 6.16802 2.07888 6.16802 1.6649 6.16802C1.6649 6.23784 1.6649 6.29863 1.6649 6.35738C1.6649 8.17535 1.67643 9.99196 1.6579 11.8099C1.65225 12.3294 2.00205 12.8203 2.65941 12.818C5.70912 12.8101 8.75658 12.8157 11.8072 12.8135C12.4264 12.8126 12.7936 12.4388 12.7936 11.8178C12.7936 9.99987 12.7936 8.18236 12.7936 6.36575C12.7936 6.30089 12.7936 6.23604 12.7936 6.16576C12.3717 6.16576 11.9692 6.16576 11.5711 6.16576C11.9369 8.27365 11.3121 9.97908 9.45619 11.0843C7.89653 12.0151 6.26072 11.9564 4.75846 10.937C3.08243 9.80034 2.52382 8.15682 2.88606 6.16802ZM4.43826 7.24275C4.42899 8.76402 5.67455 10.0263 7.19534 10.0383C8.75296 10.0503 10.0085 8.80831 10.0134 7.25111C10.0171 5.71426 8.77466 4.46168 7.24008 4.45603C5.69624 4.45151 4.44503 5.69528 4.43826 7.24275ZM12.8074 3.10493C12.8028 3.10493 12.7994 3.10493 12.7936 3.10448C12.7936 2.94833 12.7936 2.79105 12.7936 2.63354C12.789 2.09957 12.399 1.70592 11.8702 1.7023C11.5559 1.70004 11.2418 1.70004 10.9288 1.7023C10.4148 1.70592 10.017 2.08714 10.0028 2.59874C9.9949 2.9298 9.9949 3.26334 10.0028 3.59484C10.0168 4.08927 10.4001 4.47524 10.8929 4.49083C11.2287 4.50145 11.5686 4.501 11.9057 4.49083C12.322 4.47931 12.667 4.21288 12.7554 3.8059C12.8037 3.57857 12.7913 3.33904 12.8074 3.10493Z" fill="#C7C7C7"/>
</svg>
