<svg width="23" height="22" viewBox="0 0 23 22" fill="none" xmlns="http://www.w3.org/2000/svg">
<path d="M10.5909 4.24662C10.6235 4.30814 10.6591 4.3728 10.698 4.44326C10.7159 4.47582 10.7345 4.50962 10.7539 4.54492L11.4125 5.748L12.1354 4.58241C12.1679 4.53009 12.1915 4.4913 12.2108 4.45955C12.2399 4.41186 12.2592 4.38007 12.2843 4.3422C12.4178 4.1408 12.5425 3.947 12.6636 3.7588C12.9218 3.35745 13.1636 2.98156 13.4396 2.61176L13.4396 2.61172C14.3353 1.41107 15.5459 0.869968 17.0363 0.825309L17.0364 0.825308C18.2395 0.789185 19.3521 1.12298 20.3568 1.82503C21.5181 2.6365 22.0862 3.81179 22.1882 5.332C22.2809 6.7157 21.8194 7.99261 21.195 9.38681C20.5216 10.8901 19.5652 12.2155 18.4883 13.5301L18.4883 13.5301C16.3247 16.1719 13.9468 18.6019 11.4422 20.9197C9.67641 19.288 7.97936 17.6242 6.38303 15.8599C4.95677 14.2836 3.62716 12.6704 2.52879 10.8851C1.82328 9.73832 1.24989 8.60251 0.980982 7.3546C0.706775 6.08208 0.720486 4.8887 1.18601 3.7598C1.84241 2.16806 3.05816 1.32368 4.72765 0.939424C5.844 0.682525 6.91343 0.777132 7.95426 1.25058L10.5909 4.24662ZM10.5909 4.24662C10.2144 3.53585 9.79686 2.89202 9.28808 2.33865L9.28805 2.33862C8.83059 1.84102 8.43047 1.46728 7.95433 1.25061L10.5909 4.24662Z" stroke="#84B53F" stroke-width="1.6"/>
</svg>
