<svg width="27" height="27" viewBox="0 0 27 27" fill="none" xmlns="http://www.w3.org/2000/svg">
	<path d="M27 13.5C27 20.9558 20.9558 27 13.5 27C6.04416 27 0 20.9558 0 13.5C0 6.04416 6.04416 0 13.5 0C20.9558 0 27 6.04416 27 13.5Z" fill="#F30003"/>
	<path d="M6.49658 12.876L7.96289 10.1797H9.81592L7.53857 14.0576L9.875 18H8.00049L6.49658 15.2607L4.99268 18H3.11816L5.45459 14.0576L3.17725 10.1797H5.03027L6.49658 12.876Z" fill="white"/>
	<path d="M15.3804 10.1797H16.9971V18H15.3804V12.8062L12.249 18H10.6377V10.1797H12.249V15.3843L15.3804 10.1797Z" fill="white"/>
	<path d="M24.1191 11.4849H21.7236V18H20.1123V11.4849H17.749V10.1797H24.1191V11.4849Z" fill="white"/>
</svg>
