<svg width="27" height="27" viewBox="0 0 27 27" fill="none" xmlns="http://www.w3.org/2000/svg">
<path d="M27 13.5C27 20.9558 20.9558 27 13.5 27C6.04416 27 0 20.9558 0 13.5C0 6.04416 6.04416 0 13.5 0C20.9558 0 27 6.04416 27 13.5Z" fill="#FD983B"/>
<path d="M8.88219 17H7.39177L4.49042 12.3942V17H3V10H4.49042L7.39674 14.6154V10H8.88219V17Z" fill="white"/>
<path d="M14.5358 13.9663H11.6742V15.8413H15.0326V17H10.1838V10H15.0227V11.1683H11.6742V12.8365H14.5358V13.9663Z" fill="white"/>
<path d="M21.5408 14.9808L22.5145 10H24L22.3953 17H20.895L19.7175 12.3173L18.5401 17H17.0397L15.4351 10H16.9205L17.8992 14.9712L19.0916 10H20.3534L21.5408 14.9808Z" fill="white"/>
</svg>
