<svg width="8" height="15" viewBox="0 0 8 15" fill="none" xmlns="http://www.w3.org/2000/svg">
<path d="M4.98825 14.2476C4.99276 14.1842 5.00199 10.0343 5.00199 8.02253C5.00199 7.96002 5.00199 7.89794 5.00199 7.81709C5.07274 7.81709 5.12996 7.81709 5.18493 7.81709C6.062 7.81709 6.93795 7.81709 7.81366 7.81709C7.9975 7.81709 7.9975 7.81709 7.9975 7.63874C7.9975 6.81293 7.9975 5.98797 7.9975 5.16365C7.9975 4.97826 7.9975 4.97826 7.80691 4.97826C6.93209 4.97826 6.05479 4.97826 5.17998 4.97826C5.12546 4.97826 5.06913 4.97826 5.01754 4.97826C5.01754 4.52706 4.99591 4.0957 5.02542 3.66861C5.04615 3.36567 5.28992 3.06658 5.72992 3.07981C6.43216 3.10114 7.13666 3.08279 7.8407 3.08813C7.96664 3.08898 8.00088 3.05357 7.99998 2.93431C7.993 2.08631 7.99728 1.2398 7.99728 0.391803C7.99728 0.348069 7.9921 0.304763 7.98849 0.252709C7.93014 0.251856 7.88215 0.247589 7.83642 0.247589C7.1103 0.247589 6.38215 0.247589 5.65467 0.247589C5.00042 0.247589 4.40159 0.417189 3.86606 0.777083C2.95385 1.38956 2.42666 2.23586 2.26535 3.26797C2.18649 3.77463 2.21871 4.29709 2.20249 4.81293C2.20024 4.86583 2.20159 4.91746 2.20159 4.97826C2.12814 4.97826 2.07655 4.97826 2.02563 4.97826C1.40134 4.97826 0.780433 4.97954 0.15817 4.9757C0.0423691 4.97421 -0.000887413 4.99959 1.37635e-05 5.11757C0.00474494 5.96962 0.00474494 6.82125 0.00136553 7.67266C1.37636e-05 7.78552 0.0322308 7.82093 0.153214 7.82008C0.775476 7.81474 1.39751 7.81709 2.01978 7.81709C2.07655 7.81709 2.13152 7.81709 2.20249 7.81709C2.20249 9.97261 2.20249 12.11 2.20249 14.2476C0.863341 14.2476 6.1555 14.2476 4.98825 14.2476Z" fill="#C7C7C7"/>
</svg>
