<svg width="18" height="13" viewBox="0 0 18 13" fill="none" xmlns="http://www.w3.org/2000/svg">
<path d="M17.291 4.40609C17.291 5.61664 17.291 6.82674 17.291 8.03818C17.2768 8.14655 17.2606 8.2547 17.2464 8.36263C17.1584 9.02065 17.1098 9.68511 16.9779 10.3331C16.7853 11.2874 16.0085 11.965 15.0502 12.0309C13.7324 12.1224 12.4175 12.2092 11.0975 12.243C8.24421 12.3163 5.39029 12.3081 2.54302 12.0782C1.58275 11.9994 0.822797 11.6367 0.443265 10.7167C0.289809 10.3458 0.223409 9.93206 0.160117 9.53032C0.083722 9.03664 0.0521884 8.53608 0 8.03818C0 6.86139 0 5.68548 0 4.50869C0.0146572 4.40076 0.0308666 4.29128 0.0441913 4.18424C0.128803 3.52577 0.181659 2.86221 0.306689 2.21196C0.501896 1.20817 1.25363 0.539047 2.26809 0.463541C3.48085 0.371156 4.69718 0.286989 5.91328 0.25612C8.84271 0.18239 11.7737 0.177504 14.6976 0.414906C15.4922 0.479974 16.1788 0.705162 16.6534 1.3916C16.9743 1.85752 17.0581 2.3974 17.1336 2.9366C17.2011 3.42451 17.2393 3.91663 17.291 4.40609ZM11.9098 6.08078C10.059 5.11563 8.25465 4.17358 6.43072 3.22286C6.43072 5.13695 6.43072 7.01595 6.43072 8.92316C8.26464 7.97133 10.0659 7.03705 11.9098 6.08078Z" fill="#C7C7C7"/>
</svg>
